# xmcd
#
# Track frame offsets: 
#        150
#        14815
#        33760
#        50707
#        66681
#        84052
#        100477
#        119634
#        140511
#        158632
#        176359
#        194177
#        209205
#        227006
#        243901
#        260013
#        278643
#        295829
#        314221
#        331120
#
# Disc length: 4665 seconds
#
# Revision: 0
# Processed by: cddbd v1.5.2PL0 Copyright (c) Steve Scherf et al.
# Submitted via: ExactAudioCopy v1.1
#
DISCID=3b123714
DTITLE=Various Artist - 80's Hits 2 - CD 1
DYEAR=2017
DGENRE=Top 40
TTITLE0=The Bangles - Walk Like An Egyptian
TTITLE1=Culture Club - Karma Chameleon
TTITLE2=Nena - 99 Luftballons
TTITLE3=Rick Astley - Never Gonna Give You Up
TTITLE4=Cyndi Lauper - Girls Just Want To Have Fun
TTITLE5=Terence Trent D'Arby - Dance Little Sister
TTITLE6=Gloria Estefan - Conga
TTITLE7=Feargal Sharkey - A Good Heart
TTITLE8=Yazz - The Only Way Is Up
TTITLE9=Sandra - Maria Magdalena
TTITLE10=Level 42 - Running In The Family
TTITLE11=Nik Kershaw - I Won't Let The Sun Go Down On Me
TTITLE12=The J. Geils Band - Freeze-Frame
TTITLE13=Dr. Hook - Baby Makes Her Blue Jeans Talk
TTITLE14=Pepsi and Shirlie - Heartache
TTITLE15=Yello - I Love You
TTITLE16=Kool and The Gang - Fresh
TTITLE17=Yarbrough and Peoples - Don't Stop The Music
TTITLE18=Ashford and Simpson - Solid
TTITLE19=Roxy Music - Avalon
EXTD=
EXTT0=
EXTT1=
EXTT2=
EXTT3=
EXTT4=
EXTT5=
EXTT6=
EXTT7=
EXTT8=
EXTT9=
EXTT10=
EXTT11=
EXTT12=
EXTT13=
EXTT14=
EXTT15=
EXTT16=
EXTT17=
EXTT18=
EXTT19=
PLAYORDER=
